<?xml version="1.0" encoding="iso-8859-1"?>
<!-- Generator: Adobe Illustrator 19.0.0, SVG Export Plug-In . SVG Version: 6.00 Build 0)  -->
<svg version="1.1" id="Layer_1" xmlns="http://www.w3.org/2000/svg" xmlns:xlink="http://www.w3.org/1999/xlink" x="0px" y="0px"
	 viewBox="0 0 281.611 281.611" style="enable-background:new 0 0 281.611 281.611;" xml:space="preserve">
<g>
	<g id="XMLID_19_">
		<g>
			<path style="fill:#2D213F;" d="M239.973,240.098c0.58,2.448,0.032,5.024-1.578,6.989c-1.61,1.997-4.058,3.124-6.634,3.124h-59
				v1.385c0,16.554-13.848,30.015-30.885,30.015c-17.069,0-30.917-13.462-30.917-30.015v-1.385H49.833
				c-2.576,0-5.024-1.127-6.602-3.124c-1.61-1.965-2.19-4.541-1.578-6.989l6.055-24.251c1.997-8.019,6.666-14.879,13.011-19.935
				v-64.411c0-27.246,14.557-51.206,36.424-65.119c-10.563,2.093-22.222,3.382-35.2,3.897c-0.097,0-0.225,0-0.322,0
				c-3.156,0-6.022-1.707-7.472-4.412c-1.514-2.834-1.224-6.216,0.773-8.76l17.326-21.964L54.921,13.179
				c-2.029-2.576-2.319-6.087-0.676-8.921c1.61-2.866,4.799-4.541,8.116-4.219c22.898,1.997,42.543,6.022,59.741,12.109
				c5.121-4.154,11.691-6.666,18.872-6.666c6.924,0,13.301,2.319,18.325,6.216c16.908-5.829,36.199-9.694,58.549-11.658
				c3.317-0.322,6.538,1.353,8.148,4.219c1.61,2.834,1.32,6.344-0.709,8.921l-17.326,21.963l17.326,21.964
				c1.997,2.544,2.287,5.926,0.805,8.76c-1.449,2.705-4.348,4.412-7.504,4.412c-0.097,0-0.225,0-0.322,0
				c-12.141-0.483-23.123-1.642-33.171-3.51c21.545,13.977,35.78,37.777,35.78,64.733v64.411
				c6.344,5.056,11.014,11.916,13.011,19.935L239.973,240.098z M221.036,233.85l-3.51-14.17
				c-2.383-9.565-12.27-16.521-23.478-16.521H87.545c-11.175,0-21.062,6.956-23.445,16.521l-3.543,14.17H221.036z M204.032,187.893
				v-56.391c0-33.848-28.373-61.383-63.219-61.383c-34.878,0-63.219,27.536-63.219,61.383v56.391
				c3.188-0.709,6.538-1.127,9.951-1.127h106.503C197.494,186.766,200.811,187.184,204.032,187.893z M200.457,52.534l-9.79-12.399
				c-2.319-2.963-2.319-7.021,0-9.951l9.017-11.465c-11.111,1.707-21.159,4.09-30.498,7.053c0.837,2.641,1.288,5.443,1.288,8.341
				c0,4.026-0.87,7.858-2.415,11.368C177.559,48.798,188.219,51.149,200.457,52.534z M155.917,251.595v-1.385h-28.115v1.385
				c0,7.504,6.312,13.623,14.074,13.623C149.605,265.218,155.917,259.099,155.917,251.595z M153.631,34.113
				c0-6.763-5.668-12.27-12.657-12.27c-6.956,0-12.624,5.507-12.624,12.27c0,6.795,5.668,12.302,12.624,12.302
				C147.963,46.415,153.631,40.908,153.631,34.113z M111.474,34.113c0-2.705,0.419-5.346,1.159-7.858
				c-9.758-3.188-20.354-5.733-32.109-7.536l9.017,11.465c2.319,2.931,2.319,6.989,0,9.951l-9.79,12.399
				c12.882-1.449,24.057-3.993,33.912-7.6C112.279,41.584,111.474,37.945,111.474,34.113z"/>
			<path style="fill:#EAC165;" d="M217.526,219.679l3.51,14.17H60.557l3.543-14.17c2.383-9.565,12.27-16.521,23.445-16.521h106.503
				C205.256,203.158,215.143,210.114,217.526,219.679z"/>
			<path style="fill:#EAC165;" d="M204.032,131.501v56.391c-3.221-0.709-6.538-1.127-9.984-1.127H87.545
				c-3.414,0-6.763,0.419-9.951,1.127v-56.391c0-33.848,28.341-61.383,63.219-61.383C175.659,70.118,204.032,97.654,204.032,131.501
				z"/>
			<path style="fill:#FEDE94;" d="M201.443,225.431c3.034,0,5.259-2.847,4.531-5.79l-2.077-8.38
				c-0.67-2.686-1.981-5.134-3.697-7.314c-1.984-0.47-4.029-0.789-6.151-0.789H87.545c-11.175,0-21.062,6.956-23.445,16.521
				l-1.436,5.752H201.443z"/>
			<path style="fill:#FEDE94;" d="M171.804,78.063c-9.169-5.034-19.729-7.942-30.991-7.942c-34.878,0-63.219,27.536-63.219,61.383
				v43.886c1.642,1.832,3.948,2.966,6.499,2.96c0.032,0,0.061,0,0.093,0h97.112h0.093c4.956,0.006,9.008-4.435,9.008-9.868v-45.4
				C190.403,105.286,183.205,89.283,171.804,78.063z"/>
			<path style="fill:#F47C6D;" d="M190.667,40.135l9.79,12.399c-12.238-1.385-22.898-3.736-32.399-7.053
				c1.546-3.51,2.415-7.343,2.415-11.368c0-2.898-0.451-5.7-1.288-8.341c9.34-2.963,19.388-5.346,30.498-7.053l-9.017,11.465
				C188.348,33.114,188.348,37.172,190.667,40.135z"/>
			<path style="fill:#EAC165;" d="M155.917,250.21v1.385c0,7.504-6.312,13.623-14.042,13.623c-7.761,0-14.074-6.119-14.074-13.623
				v-1.385L155.917,250.21L155.917,250.21z"/>
			<path style="fill:#EF685E;" d="M140.974,21.842c6.989,0,12.657,5.507,12.657,12.27c0,6.795-5.668,12.302-12.657,12.302
				c-6.956,0-12.624-5.507-12.624-12.302C128.35,27.349,134.018,21.842,140.974,21.842z"/>
			<path style="fill:#F47C6D;" d="M112.633,26.254c-0.741,2.512-1.159,5.153-1.159,7.858c0,3.832,0.805,7.472,2.19,10.821
				c-9.855,3.607-21.03,6.151-33.912,7.6l9.79-12.399c2.319-2.963,2.319-7.021,0-9.951l-9.017-11.465
				C92.28,20.522,102.875,23.066,112.633,26.254z"/>
		</g>
	</g>
</g>
<g>
</g>
<g>
</g>
<g>
</g>
<g>
</g>
<g>
</g>
<g>
</g>
<g>
</g>
<g>
</g>
<g>
</g>
<g>
</g>
<g>
</g>
<g>
</g>
<g>
</g>
<g>
</g>
<g>
</g>
</svg>
