<?xml version="1.0" encoding="iso-8859-1"?>
<!-- Generator: Adobe Illustrator 19.0.0, SVG Export Plug-In . SVG Version: 6.00 Build 0)  -->
<svg version="1.1" id="Layer_1" xmlns="http://www.w3.org/2000/svg" xmlns:xlink="http://www.w3.org/1999/xlink" x="0px" y="0px"
	 viewBox="0 0 265.05 265.05" style="enable-background:new 0 0 265.05 265.05;" xml:space="preserve">
<g>
	<g>
		<g>
			<g id="XMLID_24_">
				<g>
					<path style="fill:#2D213F;" d="M219.495,16.038v50.24c0,45.152-34.621,82.349-78.678,86.536v95.65h36.006
						c4.573,0,8.277,3.736,8.277,8.309s-3.704,8.277-8.277,8.277H88.227c-4.573,0-8.277-3.704-8.277-8.277s3.704-8.309,8.277-8.309
						h36.006v-95.65c-44.057-4.187-78.678-41.384-78.678-86.536v-50.24C45.555,7.214,52.769,0,61.593,0h141.864
						C212.282,0,219.495,7.214,219.495,16.038z M202.91,50.756v-34.17H62.14V50.53c17.359,0.837,27.374,5.024,36.295,8.792
						c9.275,3.929,18.035,7.633,35.941,7.633s26.666-3.704,35.941-7.633C178.563,55.844,187.773,51.947,202.91,50.756z
						 M202.878,67.438c-11.594,1.063-18.743,4.026-26.118,7.15c-9.919,4.187-21.127,8.921-42.382,8.921
						c-21.288,0-32.495-4.734-42.414-8.921c-8.148-3.446-15.909-6.731-29.79-7.472c0.451,38.421,31.819,69.563,70.369,69.563
						C170.963,136.679,202.234,105.698,202.878,67.438z"/>
					<path style="fill:#EAEEEF;" d="M202.91,16.586v34.17c-15.136,1.192-24.347,5.088-32.592,8.567
						c-9.275,3.929-18.035,7.633-35.941,7.633s-26.666-3.704-35.941-7.633c-8.921-3.768-18.937-7.955-36.295-8.792V16.586H202.91z"
						/>
					<path style="fill:#FEDE94;" d="M176.76,74.587c7.375-3.124,14.525-6.087,26.118-7.15c-0.644,38.26-31.915,69.241-70.336,69.241
						c-38.55,0-69.918-31.143-70.369-69.563c13.88,0.741,21.642,4.026,29.79,7.472c9.919,4.187,21.127,8.921,42.414,8.921
						C155.633,83.508,166.84,78.774,176.76,74.587z M140.046,113.878c0-3.414-2.77-6.216-6.183-6.216
						c-3.446,0-6.216,2.802-6.216,6.216c0,3.446,2.77,6.216,6.216,6.216C137.275,120.094,140.046,117.324,140.046,113.878z
						 M111.061,97.324c0-6.86-5.539-12.431-12.399-12.431S86.23,90.465,86.23,97.324s5.572,12.431,12.431,12.431
						C105.521,109.756,111.061,104.184,111.061,97.324z"/>
					<path style="fill:#EAC781;" d="M111.975,133.604c6.509,1.994,13.414,3.076,20.566,3.076c38.421,0,69.692-30.981,70.336-69.241
						c-9.761,0.895-16.364,3.14-22.611,5.691C168.609,96.448,147.997,119.482,111.975,133.604z"/>
					<path style="fill:#2D213F;" d="M133.861,107.662c3.414,0,6.183,2.802,6.183,6.216c0,3.446-2.77,6.216-6.183,6.216
						c-3.446,0-6.216-2.77-6.216-6.216C127.646,110.464,130.415,107.662,133.861,107.662z"/>
					<path style="fill:#2D213F;" d="M98.661,84.893c6.86,0,12.399,5.572,12.399,12.431c0,6.86-5.539,12.431-12.399,12.431
						S86.23,104.183,86.23,97.324S91.801,84.893,98.661,84.893z"/>
				</g>
			</g>
		</g>
		<path style="fill:#C5CBCF;" d="M188.296,53.036c4.229-1.024,9.011-1.839,14.615-2.28v-34.17h-8.158
			C194.186,26.724,192.489,39.484,188.296,53.036z"/>
	</g>
</g>
<g>
</g>
<g>
</g>
<g>
</g>
<g>
</g>
<g>
</g>
<g>
</g>
<g>
</g>
<g>
</g>
<g>
</g>
<g>
</g>
<g>
</g>
<g>
</g>
<g>
</g>
<g>
</g>
<g>
</g>
</svg>
